<?xml version="1.0" encoding="utf-8"?>
<!-- Generator: Adobe Illustrator 22.1.0, SVG Export Plug-In . SVG Version: 6.00 Build 0)  -->
<svg version="1.1" id="Capa_1" xmlns="http://www.w3.org/2000/svg" xmlns:xlink="http://www.w3.org/1999/xlink" x="0px" y="0px"
	 viewBox="0 0 32 32" style="enable-background:new 0 0 32 32;" xml:space="preserve">
<g>
	<path d="M13.3,24.3l-3.8,3.8c-1.6,1.6-4.1,1.6-5.6,0c-1.6-1.6-1.6-4.1,0-5.6l7.4-7.4c1.6-1.6,4.1-1.6,5.6,0c0.5,0.5,1.4,0.5,1.9,0
		c0.5-0.5,0.5-1.4,0-1.9c-2.6-2.6-6.7-2.6-9.3,0l-7.4,7.4c-2.6,2.6-2.6,6.7,0,9.3c2.6,2.6,6.7,2.6,9.3,0l3.8-3.8
		c0.5-0.5,0.5-1.4,0-1.9C14.7,23.7,13.8,23.8,13.3,24.3z"/>
	<path d="M29.9,2.1c-2.6-2.6-6.7-2.6-9.3,0l-4.5,4.5c-0.5,0.5-0.5,1.4,0,1.9C16.6,9,17.5,9,18,8.5L22.5,4c1.6-1.6,4.1-1.6,5.6,0
		c1.6,1.6,1.6,4.1,0,5.6l-8.2,8.2c-1.6,1.6-4.1,1.6-5.6,0c-0.5-0.5-1.4-0.5-1.9,0c-0.5,0.5-0.5,1.4,0,1.9c2.6,2.6,6.7,2.6,9.3,0
		l8.2-8.2C32.5,8.9,32.5,4.7,29.9,2.1z"/>
</g>
</svg>
