<svg id="Capa_1" data-name="Capa 1" xmlns="http://www.w3.org/2000/svg" viewBox="0 0 32 32"><title>link</title>
<g fill="#fff">
<path d="M13.28,24.32,9.51,28.09a4,4,0,0,1-5.65-5.65L11.29,15a3.94,3.94,0,0,1,5.65,0,1.39,1.39,0,0,0,1.88,0,1.37,1.37,0,0,0,0-1.88,6.57,6.57,0,0,0-9.31,0L2.08,20.56a6.58,6.58,0,0,0,9.31,9.31l3.77-3.77a1.3,1.3,0,1,0-1.88-1.78Z"/>
<path d="M29.92,2.13a6.58,6.58,0,0,0-9.31,0L16.15,6.59A1.33,1.33,0,0,0,18,8.47L22.49,4a4,4,0,0,1,5.65,5.65l-8.23,8.22a3.93,3.93,0,0,1-5.64,0,1.33,1.33,0,1,0-1.89,1.88,6.58,6.58,0,0,0,9.32,0l8.22-8.22A6.71,6.71,0,0,0,29.92,2.13Z"/>
</g>
</svg>